<svg width="168" height="168" viewBox="0 0 168 168" fill="none" xmlns="http://www.w3.org/2000/svg">
<path d="M84 144.48C63 144.48 44.436 133.728 33.6 117.6C33.852 100.8 67.2 91.56 84 91.56C100.8 91.56 134.148 100.8 134.4 117.6C123.564 133.728 105 144.48 84 144.48ZM84 25.2C90.6835 25.2 97.0932 27.855 101.819 32.5809C106.545 37.3068 109.2 43.7165 109.2 50.4C109.2 57.0835 106.545 63.4932 101.819 68.2191C97.0932 72.945 90.6835 75.6 84 75.6C77.3165 75.6 70.9068 72.945 66.1809 68.2191C61.455 63.4932 58.8 57.0835 58.8 50.4C58.8 43.7165 61.455 37.3068 66.1809 32.5809C70.9068 27.855 77.3165 25.2 84 25.2ZM84 0C72.969 0 62.0459 2.17272 51.8546 6.39412C41.6632 10.6155 32.4031 16.8029 24.603 24.603C8.84997 40.3561 0 61.7218 0 84C0 106.278 8.84997 127.644 24.603 143.397C32.4031 151.197 41.6632 157.384 51.8546 161.606C62.0459 165.827 72.969 168 84 168C106.278 168 127.644 159.15 143.397 143.397C159.15 127.644 168 106.278 168 84C168 37.548 130.2 0 84 0Z" fill="#D9D9D9"/>
</svg>
