<svg width="178" height="170" viewBox="0 0 178 170" fill="none" xmlns="http://www.w3.org/2000/svg">
<circle cx="95.0927" cy="87.6406" r="82.3603" fill="#4E3D28"/>
<path fill-rule="evenodd" clip-rule="evenodd" d="M60.8745 18.8074C64.7073 18.8074 68.3454 17.9737 71.6172 16.4776C74.889 17.9737 78.5271 18.8074 82.3598 18.8074C94.1973 18.8074 104.177 10.8543 107.248 0C142.608 9.25335 168.699 41.4212 168.699 79.6828C168.699 125.169 131.825 162.043 86.3388 162.043C40.8525 162.043 3.97852 125.169 3.97852 79.6828C3.97852 63.5232 8.63244 48.4506 16.6731 35.7321C20.4338 40.9071 26.5345 44.2717 33.4211 44.2717C44.8476 44.2717 54.1106 35.0087 54.1106 23.5822C54.1106 21.5262 53.8108 19.5404 53.2524 17.6659C55.6619 18.408 58.2216 18.8074 60.8745 18.8074Z" fill="#FF7105"/>
<circle cx="2.78513" cy="33.5293" r="2.78513" fill="#FF7105"/>
<circle cx="6.76389" cy="12.0442" r="6.76389" fill="#FF7105"/>
<circle cx="86.3388" cy="79.6826" r="34.3652" stroke="#419AA9" stroke-width="0.5"/>
<circle cx="86.3394" cy="79.0972" r="62.2623" stroke="#419AA9" stroke-width="2"/>
<circle cx="86.339" cy="79.6827" r="65.3495" stroke="#419AA9" stroke-width="0.6"/>
<circle cx="86.3389" cy="79.6826" r="76.29" stroke="#419AA9"/>
<circle cx="86.3395" cy="79.6822" r="25.8619" fill="#4E3D28"/>
<circle cx="123.5" cy="42.5" r="2.5" fill="#F9F4E4"/>
<circle cx="104.5" cy="27.5" r="1.5" fill="#F9F4E4"/>
<circle cx="119.5" cy="16.5" r="1.5" fill="#F9F4E4"/>
<circle cx="93.5" cy="30.5" r="1.5" fill="#F9F4E4"/>
</svg>
